<?xml version="1.0" standalone="no"?>
<!DOCTYPE svg PUBLIC "-//W3C//DTD SVG 20010904//EN"
 "http://www.w3.org/TR/2001/REC-SVG-20010904/DTD/svg10.dtd">
<svg version="1.0" xmlns="http://www.w3.org/2000/svg"
 width="1024.000000pt" height="1024.000000pt" viewBox="0 0 1024.000000 1024.000000"
 preserveAspectRatio="xMidYMid meet">

<g transform="translate(0.000000,1024.000000) scale(0.100000,-0.100000)"
fill="#000000" stroke="none">
<path d="M4908 8198 c-123 -117 -296 -285 -384 -373 -89 -87 -167 -161 -172
-163 -17 -5 -376 36 -641 74 -134 19 -250 33 -258 30 -11 -5 -13 -90 -13 -487
1 -450 0 -483 -17 -502 -10 -12 -131 -139 -270 -282 -259 -268 -373 -396 -373
-419 0 -15 40 -76 83 -126 16 -19 154 -163 306 -319 l276 -284 -3 -431 c-1
-237 1 -449 6 -471 l8 -40 94 2 c52 2 181 14 285 27 105 14 224 27 265 31 41
3 108 10 148 16 l74 9 162 -152 c90 -84 246 -229 347 -323 101 -93 209 -196
239 -228 30 -31 58 -57 63 -57 4 0 46 37 94 82 48 46 134 128 192 183 59 55
199 191 312 304 l207 204 163 -26 c517 -82 699 -104 711 -84 7 11 12 190 13
407 0 41 -4 179 -9 307 l-8 232 213 208 c118 114 248 241 289 283 96 95 202
227 198 245 -3 12 -555 585 -652 676 l-39 37 8 469 c4 257 8 479 9 493 1 17
-4 24 -14 23 -8 -1 -78 -11 -155 -22 -77 -11 -234 -29 -350 -41 -115 -11 -253
-25 -305 -30 l-94 -11 -131 129 c-71 71 -175 169 -230 218 -55 49 -154 141
-220 205 -66 64 -139 133 -162 153 l-42 38 -223 -214z m156 -80 c3 -13 4 -248
3 -524 -2 -385 -5 -504 -15 -516 -10 -12 -9 -22 4 -53 8 -20 13 -43 10 -50 -2
-7 -31 -15 -68 -18 -34 -3 -72 -9 -83 -12 -20 -6 -20 -3 -23 507 l-2 513 53
51 c28 28 63 67 77 87 29 43 38 46 44 15z m296 -500 c1 -194 2 -427 1 -517 l0
-163 -28 7 c-15 4 -53 13 -83 19 -46 9 -55 14 -52 31 5 39 1 1020 -5 1043 -3
12 -2 38 2 58 l6 36 79 -80 79 -81 1 -353z m307 -378 c4 -365 3 -460 -7 -460
-7 0 -30 16 -52 36 -22 20 -55 42 -74 50 l-34 14 0 483 c0 266 3 486 6 490 4
3 40 -30 81 -73 l75 -80 5 -460z m-913 122 l1 -470 -39 -18 c-21 -9 -56 -33
-78 -52 -21 -19 -41 -33 -43 -30 -2 2 -5 205 -5 451 l-1 447 73 80 c42 46 76
76 81 71 5 -5 10 -221 11 -479z m-1099 234 c18 -5 496 -66 516 -66 19 0 5 -19
-95 -124 -118 -124 -115 -123 -183 -34 -52 69 -111 128 -126 128 -15 0 -106
-72 -107 -84 0 -5 44 -53 97 -108 l97 -98 -96 -98 c-53 -53 -109 -112 -124
-130 -14 -18 -28 -31 -30 -30 -6 6 -13 646 -7 652 4 3 14 4 22 2 9 -2 25 -7
36 -10z m3013 -316 c-1 -176 -5 -320 -8 -320 -3 0 -58 54 -122 119 l-117 120
28 38 c16 21 56 65 90 98 70 68 78 99 36 140 -48 49 -85 29 -195 -108 l-62
-78 -121 123 -122 123 80 8 c150 14 419 48 424 52 2 3 24 5 49 5 l44 0 -4
-320z m-728 -99 c3 -146 3 -293 1 -325 -4 -58 -5 -61 -65 -118 l-61 -58 -6 72
c-9 104 -10 433 -2 646 l6 181 61 -66 61 -66 5 -266z m-1496 277 c19 -346 17
-714 -4 -749 -6 -9 -21 -2 -57 28 -26 22 -56 44 -65 49 -16 8 -18 41 -24 322
l-6 312 68 70 c37 38 71 70 75 70 4 0 10 -46 13 -102z m-225 -203 c1 -34 -4
-44 -35 -70 l-36 -30 17 -43 c21 -52 15 -146 -10 -171 -15 -15 -23 -9 -100 74
-47 50 -85 95 -85 102 0 6 33 37 73 68 39 31 92 80 117 108 43 49 45 50 51 26
4 -13 7 -42 8 -64z m2071 -147 c0 -5 -5 -8 -11 -8 -6 0 -50 -40 -98 -90 -48
-49 -93 -90 -99 -90 -15 0 -16 53 -1 120 8 36 25 68 55 106 46 56 46 69 1 34
-27 -22 -62 -26 -72 -9 -4 5 -4 47 0 92 l7 81 109 -114 c59 -63 108 -118 109
-122z m-2321 -97 c45 -84 43 -91 -26 -92 -110 -2 -135 -1 -144 8 -10 10 106
143 125 143 7 0 27 -27 45 -59z m2446 -8 c30 -32 55 -61 55 -64 0 -15 -40 -20
-122 -13 -49 3 -88 10 -88 14 0 16 75 120 87 120 7 0 37 -26 68 -57z m-76
-168 c14 -15 -36 -79 -118 -153 -53 -48 -134 -125 -181 -172 l-85 -85 -24 50
c-13 28 -30 57 -37 65 -12 14 0 29 84 112 53 52 129 119 167 148 l70 52 60 -7
c33 -4 62 -8 64 -10z m331 -79 c0 -20 -623 -627 -631 -614 -4 6 -13 40 -19 75
l-12 63 283 282 284 283 48 -39 c26 -22 47 -44 47 -50z m-2946 45 c22 -21 150
-148 283 -282 l241 -244 -19 -74 c-10 -41 -20 -76 -22 -78 -2 -2 -144 137
-316 307 l-313 311 49 49 c26 27 50 49 52 49 2 1 22 -16 45 -38z m346 19 c50
-26 169 -128 249 -213 l63 -69 -29 -31 c-16 -18 -35 -44 -41 -59 -6 -16 -16
-28 -21 -28 -5 0 -62 55 -127 121 -66 67 -156 158 -201 202 -46 44 -83 84 -83
88 0 5 34 9 75 9 56 0 86 -5 115 -20z m1193 -20 c152 -22 259 -81 398 -219 79
-79 103 -111 137 -181 73 -149 94 -286 69 -450 -25 -167 -98 -302 -230 -426
-254 -239 -595 -280 -891 -106 -130 76 -225 180 -299 327 -42 83 -54 137 -63
276 -12 190 19 308 121 461 54 81 80 109 157 169 106 82 185 122 278 143 77
17 228 19 323 6z m1625 -283 c61 -63 112 -117 112 -120 0 -4 -110 -7 -245 -7
-135 0 -245 3 -245 8 1 4 42 41 92 82 50 41 105 92 122 112 17 21 36 38 41 38
6 0 61 -51 123 -113z m-3243 -33 c70 -67 86 -87 75 -94 -17 -11 -366 -12 -424
-2 l-39 7 113 107 113 107 36 -20 c20 -11 76 -59 126 -105z m296 -290 l62 -62
-44 -7 c-60 -9 -926 -2 -935 8 -4 4 17 32 47 61 66 66 31 61 491 62 l318 0 61
-62z m3260 2 c31 -28 57 -54 58 -58 0 -4 -18 -10 -41 -13 -61 -9 -940 -2 -955
8 -9 5 7 26 50 66 l62 59 385 -5 385 -6 56 -51z m-2977 -208 c18 -100 22 -129
16 -138 -3 -5 -124 -129 -268 -274 -144 -146 -262 -272 -262 -280 0 -26 -17
-18 -40 19 -11 19 -33 43 -48 53 l-26 20 35 35 c197 204 576 585 581 586 4 0
9 -9 12 -21z m-232 6 c7 -4 -16 -32 -62 -75 l-72 -68 -137 5 c-75 3 -230 1
-346 -4 l-210 -9 -46 47 c-25 25 -56 54 -69 63 -13 9 -20 20 -16 24 4 5 152
10 329 13 177 3 388 6 470 8 81 2 152 0 159 -4z m2169 -102 c57 -59 176 -177
264 -263 88 -86 180 -177 204 -202 l43 -45 -45 -48 -46 -49 -287 284 -286 283
6 49 c8 59 22 99 34 99 5 0 56 -48 113 -108z m1078 91 c22 -6 19 -10 -45 -71
l-69 -65 -360 2 -360 1 -62 62 c-35 35 -63 66 -63 70 0 9 924 11 959 1z
m-3511 -262 c-1 -5 -51 -58 -109 -119 l-106 -109 -102 104 c-84 86 -100 107
-91 119 10 11 50 14 212 14 114 0 198 -4 196 -9z m3166 -1 c86 0 98 -11 55
-46 -19 -15 -68 -64 -110 -108 l-76 -79 -114 111 c-94 92 -111 114 -99 122 10
8 60 9 149 6 74 -3 162 -6 195 -6z m-2584 -32 c0 -6 16 -33 36 -60 l37 -49
-122 -120 -121 -120 -72 -13 c-128 -24 -168 -27 -168 -13 0 18 389 399 401
392 5 -4 9 -11 9 -17z m1924 -243 l121 -120 -55 -3 c-30 -2 -84 0 -119 3 -58
6 -67 11 -95 43 -43 51 -113 120 -170 167 l-49 40 27 32 c14 17 33 48 41 67
l16 37 80 -73 c45 -40 136 -127 203 -193z m-346 -40 l51 -55 3 -313 c2 -229 0
-317 -9 -332 -13 -22 -123 -142 -123 -135 -5 56 -10 848 -6 866 10 37 29 29
84 -31z m-1437 -215 c2 -124 3 -317 2 -430 l-3 -205 -75 80 -74 80 0 315 0
315 66 43 c37 23 70 39 74 35 4 -5 8 -109 10 -233z m172 129 c12 -11 43 -31
68 -44 25 -13 50 -29 55 -37 13 -16 18 -945 6 -952 -5 -3 -44 32 -88 77 l-79
82 3 448 c1 246 5 447 8 447 3 0 15 -9 27 -21z m1045 -432 l2 -446 -54 -58
c-30 -32 -64 -70 -76 -85 -12 -16 -26 -28 -31 -28 -5 0 -9 195 -9 488 l0 488
73 47 c39 25 77 45 82 43 6 -2 11 -162 13 -449z m-1655 311 c14 -12 11 -19
-32 -68 l-49 -54 -56 48 c-55 47 -68 70 -43 79 26 11 164 7 180 -5z m156 -2
c22 -26 16 -91 -14 -165 -16 -42 -31 -67 -36 -60 -5 8 -12 5 -25 -9 -17 -20
-20 -21 -44 -6 -40 26 -80 66 -80 82 0 15 85 140 109 160 20 16 76 15 90 -2z
m2010 -19 c24 -22 101 -134 101 -147 0 -4 -51 -57 -112 -119 l-113 -113 -3 42
c-2 23 2 74 8 113 7 40 13 104 14 142 3 90 18 119 54 110 15 -4 38 -16 51 -28z
m-1194 9 c60 -10 70 -15 68 -31 -1 -11 -2 -33 -2 -50 8 -334 8 -1106 1 -1103
-5 1 -44 40 -87 86 l-78 83 9 352 c4 194 7 366 6 382 -13 228 -13 295 -1 294
8 0 46 -6 84 -13z m375 -95 c0 -61 -4 -112 -8 -115 -5 -3 -39 26 -75 64 -52
55 -67 77 -67 100 0 26 4 30 28 31 15 0 43 6 62 13 61 24 60 26 60 -93z m1100
100 c0 -5 -23 -30 -52 -56 l-52 -46 -48 52 c-26 29 -48 54 -48 56 0 2 45 3
100 3 55 0 100 -4 100 -9z m-2727 -130 l118 -118 -86 -78 c-47 -43 -92 -90
-100 -105 -13 -25 -12 -30 11 -63 52 -78 72 -72 196 55 42 43 82 78 90 78 7 0
60 -47 117 -104 l103 -104 -53 -7 c-30 -3 -124 -17 -209 -31 -85 -13 -195 -27
-244 -30 l-89 -7 6 39 c4 21 7 164 7 317 0 152 3 277 8 277 4 -1 60 -54 125
-119z m2940 -201 c5 -166 5 -306 0 -310 -13 -13 -495 50 -551 71 l-24 9 29 28
c15 15 63 65 106 111 l78 85 67 -66 c74 -73 136 -118 162 -118 9 0 27 11 40
25 13 14 29 25 37 25 26 0 -9 48 -79 106 -38 32 -78 70 -89 86 -20 28 -20 28
-1 53 37 47 197 202 207 200 6 -1 13 -117 18 -305z m-1313 -343 l5 -362 -50
-50 c-28 -28 -64 -68 -79 -88 -16 -21 -32 -35 -35 -31 -7 6 -2 990 5 1015 3
12 23 -2 77 -54 l72 -69 5 -361z m-1154 446 c12 -19 20 -55 23 -109 l6 -82
-46 38 c-25 21 -54 55 -65 75 l-19 37 39 34 c22 19 40 34 42 34 1 0 10 -12 20
-27z"/>
<path d="M4960 6618 c-153 -54 -309 -220 -360 -387 -15 -45 -20 -91 -20 -165
1 -121 10 -165 55 -263 102 -220 395 -359 630 -297 130 33 268 138 351 265 41
63 64 119 49 119 -4 0 -29 -20 -57 -45 -115 -103 -285 -158 -422 -136 -92 15
-144 41 -217 108 -105 98 -160 247 -139 379 32 199 150 327 368 399 78 25 54
39 -71 43 -85 2 -113 -1 -167 -20z"/>
<path d="M5302 6433 c-11 -27 -26 -66 -33 -88 -6 -22 -15 -44 -19 -49 -5 -5
-56 -8 -115 -7 -103 2 -106 1 -96 -17 12 -22 130 -132 142 -132 18 0 16 -34
-6 -82 -29 -63 -47 -138 -34 -138 14 0 98 44 142 74 l39 27 81 -54 c45 -30 88
-57 96 -62 12 -7 13 1 7 43 -3 27 -15 76 -26 108 -11 31 -20 58 -20 59 0 1 40
35 90 76 49 41 90 80 90 87 0 11 -26 13 -122 11 l-123 -3 -3 25 c-7 54 -49
169 -62 169 -4 0 -16 -21 -28 -47z"/>
<path d="M5977 8310 c-43 -13 -123 -78 -141 -116 -26 -55 -7 -121 54 -184 27
-28 52 -60 55 -70 5 -16 15 -20 47 -20 36 0 45 6 96 61 73 79 81 94 82 155 0
42 -5 58 -31 90 -55 69 -112 99 -162 84z m71 -133 c30 -28 28 -50 -8 -80 -63
-53 -100 -43 -100 27 0 81 50 105 108 53z m-58 -237 c0 -5 -7 -10 -15 -10 -8
0 -15 5 -15 10 0 6 7 10 15 10 8 0 15 -4 15 -10z"/>
<path d="M4194 8300 c-37 -15 -102 -98 -109 -139 -8 -49 10 -111 44 -147 21
-23 26 -25 29 -12 4 20 32 33 32 14 0 -7 9 -25 21 -40 11 -14 15 -26 9 -26 -6
0 -8 -4 -5 -10 3 -5 25 -10 48 -10 39 0 46 5 95 60 89 100 100 156 46 228 -56
72 -146 108 -210 82z m106 -125 c38 -35 21 -76 -42 -103 -53 -22 -71 6 -54 83
8 38 11 41 42 40 19 -1 43 -10 54 -20z"/>
<path d="M7242 7169 c-116 -46 -190 -176 -156 -273 34 -96 89 -145 180 -160
51 -9 115 14 163 58 42 39 81 124 81 177 0 80 -67 163 -159 194 -50 17 -75 18
-109 4z m87 -124 c16 -8 32 -11 36 -7 3 4 5 3 4 -3 -2 -5 3 -21 10 -34 10 -19
11 -32 2 -61 -24 -80 -100 -101 -152 -42 -16 18 -29 39 -29 48 0 25 28 71 56
93 32 25 37 25 73 6z"/>
<path d="M3052 7111 c7 -12 20 -23 29 -26 8 -3 25 -22 37 -43 12 -20 22 -31
22 -24 0 20 -37 68 -71 93 l-31 22 14 -22z"/>
<path d="M2902 7007 c-12 -13 -22 -33 -22 -45 0 -23 -14 -30 -25 -12 -10 17
-33 11 -40 -10 -10 -32 -23 -23 -28 18 l-4 37 -1 -38 c-3 -71 57 -165 125
-193 75 -32 148 -7 230 79 55 57 63 92 30 131 -20 23 -25 25 -24 10 2 -14 -7
-20 -35 -24 -20 -4 -35 -3 -32 1 2 4 -5 13 -16 19 -18 10 -19 9 -9 -13 8 -19
8 -30 -2 -48 -7 -13 -12 -28 -10 -34 1 -5 -1 -7 -4 -3 -4 4 -20 1 -36 -7 -60
-32 -99 -4 -99 70 0 22 7 51 16 63 20 29 13 28 -14 -1z m23 -166 c-9 -16 35
-34 66 -27 23 4 27 2 26 -13 -1 -23 -48 -33 -98 -21 -19 4 -29 8 -22 9 6 1 9
10 6 22 -4 12 0 25 8 30 18 11 22 11 14 0z m175 -11 c0 -5 -5 -10 -11 -10 -5
0 -7 5 -4 10 3 6 8 10 11 10 2 0 4 -4 4 -10z"/>
<path d="M7202 5347 c-35 -11 -104 -86 -121 -130 -9 -22 -4 -38 24 -95 38 -78
86 -126 144 -143 48 -14 73 -9 133 31 81 54 123 178 81 240 -34 51 -67 80 -85
75 -9 -4 -26 -1 -37 4 -16 9 -20 7 -25 -15 -4 -14 -3 -30 0 -36 5 -8 2 -9 -9
-5 -10 4 -29 2 -43 -3 -17 -7 -23 -7 -19 0 3 6 13 10 21 10 8 0 14 9 14 21 0
16 -5 20 -19 16 -10 -2 -26 0 -35 5 -16 9 -16 11 1 24 21 15 19 16 -25 1z
m127 -116 c40 -38 42 -81 5 -110 -50 -39 -114 -17 -114 39 0 41 19 88 38 93
33 9 40 7 71 -22z"/>
<path d="M3065 5316 c33 -30 37 -36 20 -37 -14 0 -9 -5 15 -14 19 -7 30 -14
23 -14 -6 -1 -9 -10 -6 -21 3 -11 -1 -27 -8 -36 -9 -11 -10 -17 -2 -22 6 -4
15 -20 18 -35 7 -25 25 -39 25 -18 0 5 12 23 26 40 16 20 23 37 19 50 -6 21
-105 110 -144 129 -19 10 -16 4 14 -22z"/>
<path d="M7350 5340 c0 -5 7 -10 16 -10 8 0 12 5 9 10 -3 6 -10 10 -16 10 -5
0 -9 -4 -9 -10z"/>
<path d="M2820 5275 c-6 -8 -9 -22 -6 -32 3 -10 1 -25 -4 -33 -8 -12 -10 -10
-10 10 0 20 -2 22 -10 10 -13 -20 -13 -76 0 -121 13 -47 52 -86 115 -115 56
-27 87 -30 107 -11 7 6 18 12 23 12 12 0 58 35 68 52 5 8 -2 7 -20 -2 -38 -20
-43 -19 -43 9 0 14 -7 26 -15 28 -12 2 -10 9 11 31 37 40 22 46 -21 8 -40 -35
-74 -40 -98 -13 -19 21 -22 83 -7 113 10 18 1 27 -14 12 -15 -15 -46 -9 -52
10 -5 16 -8 17 -15 6 -7 -12 -9 -11 -9 2 0 8 5 20 12 27 7 7 9 12 6 12 -3 0
-11 -7 -18 -15z m60 -102 c0 -13 -6 -23 -14 -23 -8 0 -13 9 -12 23 1 31 26 31
26 0z"/>
<path d="M3019 5225 c17 -20 31 -43 31 -51 0 -8 4 -13 9 -10 23 14 -26 96 -57
96 -9 0 -3 -13 17 -35z"/>
<path d="M3120 5085 c0 -8 2 -15 4 -15 2 0 6 7 10 15 3 8 1 15 -4 15 -6 0 -10
-7 -10 -15z"/>
<path d="M4213 4194 c-8 -21 21 -44 47 -37 11 3 20 9 20 14 0 13 27 11 35 -2
4 -6 0 -9 -11 -7 -16 2 -20 -5 -22 -41 -4 -49 12 -76 29 -51 9 13 10 12 5 -2
-3 -10 -1 -20 4 -23 36 -22 -25 -85 -82 -85 -50 0 -64 61 -23 100 33 31 24 37
-14 9 -17 -12 -34 -19 -38 -15 -4 4 -1 11 7 16 19 12 13 12 -27 1 -26 -8 -32
-6 -36 9 -2 9 0 26 5 36 7 13 3 12 -11 -5 -22 -25 -24 -34 -22 -96 3 -67 85
-165 139 -165 12 0 22 -5 22 -10 0 -10 43 -4 65 9 6 3 16 6 24 8 26 3 66 39
88 79 31 54 30 114 -1 151 l-25 28 6 -25 c3 -14 2 -22 -2 -17 -5 4 -17 -5 -27
-20 -16 -25 -18 -26 -18 -7 0 11 -5 25 -11 31 -6 6 -8 21 -4 33 5 16 12 20 28
16 16 -4 9 7 -25 39 -38 36 -54 45 -83 45 -24 0 -38 -5 -42 -16z m132 -54 c-3
-5 -10 -10 -16 -10 -5 0 -9 5 -9 10 0 6 7 10 16 10 8 0 12 -4 9 -10z m-38 -32
c-3 -7 -5 -2 -5 12 0 14 2 19 5 13 2 -7 2 -19 0 -25z m-160 -74 c-3 -3 -12 -4
-19 -1 -8 3 -5 6 6 6 11 1 17 -2 13 -5z"/>
<path d="M5912 4154 c-22 -18 -29 -30 -25 -46 3 -17 2 -19 -5 -9 -5 7 -15 10
-21 7 -16 -10 -14 -26 4 -26 8 0 15 -9 15 -21 0 -12 4 -17 11 -14 13 9 2 -59
-16 -97 -11 -23 -11 -29 4 -42 10 -9 21 -13 26 -9 4 5 5 3 2 -4 -4 -6 5 -21
19 -32 33 -26 111 -29 120 -6 4 8 10 12 15 9 14 -8 10 1 -10 24 -10 12 -21 19
-25 15 -3 -3 -6 -1 -6 5 0 7 9 12 21 12 13 0 18 -4 13 -12 -5 -7 0 -9 14 -6
16 5 19 2 14 -11 -5 -14 -4 -14 11 -2 9 7 14 17 11 22 -3 5 0 8 8 7 7 -2 12 3
11 9 -2 7 2 12 9 10 18 -3 38 43 38 90 0 46 -40 106 -64 97 -8 -3 -29 4 -47
15 -38 23 -63 29 -35 8 11 -8 16 -20 13 -28 -4 -10 -6 -9 -6 4 -1 18 -21 25
-21 7 0 -5 -9 -2 -19 8 -46 41 -46 41 -79 16z m122 -75 c-2 -3 3 -15 11 -25
22 -29 18 -53 -15 -86 -16 -16 -30 -34 -30 -39 0 -12 -35 24 -49 50 -15 28
-14 58 5 86 13 19 24 24 49 22 18 -1 31 -5 29 -8z"/>
<path d="M6080 4151 c0 -5 5 -13 10 -16 6 -3 10 -2 10 4 0 5 -4 13 -10 16 -5
3 -10 2 -10 -4z"/>
<path d="M4234 4126 c-9 -10 -7 -15 6 -24 14 -9 19 -8 24 4 11 30 -10 44 -30
20z"/>
<path d="M8091 3979 c-81 -32 -141 -120 -141 -205 0 -59 36 -141 75 -172 92
-72 233 -42 304 65 55 83 37 190 -47 265 -57 51 -133 70 -191 47z"/>
<path d="M5399 3398 c-6 -23 -32 -85 -59 -138 -64 -128 -216 -477 -274 -625
-36 -94 -55 -129 -85 -159 -48 -47 -63 -44 -124 24 -44 49 -157 232 -157 254
0 6 22 30 49 54 108 93 146 246 88 363 -32 66 -104 141 -163 168 -67 32 -153
41 -391 41 -161 0 -223 -3 -223 -11 0 -7 20 -33 44 -58 l43 -47 6 -375 c5
-405 8 -384 -52 -448 -17 -18 -31 -37 -31 -42 0 -13 347 -12 355 1 4 6 -2 22
-12 37 -53 75 -53 75 -53 181 l0 102 63 0 63 0 31 -52 c72 -123 102 -186 108
-229 l7 -46 317 -1 c175 0 323 3 330 8 10 5 4 20 -22 53 -31 40 -34 50 -27 80
4 19 10 40 14 46 5 7 60 11 167 11 l159 0 20 -32 c26 -44 25 -73 -5 -112 -14
-18 -25 -38 -25 -44 0 -13 343 -12 356 1 4 4 -14 29 -40 56 -48 48 -78 112
-222 461 -21 52 -78 174 -125 270 -48 96 -92 192 -98 213 -7 20 -14 37 -16 37
-3 0 -9 -19 -16 -42z m-810 -246 c92 -69 91 -190 -1 -238 -22 -12 -66 -19
-133 -22 l-100 -4 3 140 c4 164 -5 153 127 146 57 -3 87 -9 104 -22z m872
-284 c18 -53 31 -99 29 -101 -3 -2 -42 -7 -88 -11 l-83 -7 7 28 c4 15 21 57
37 92 16 36 33 76 38 90 13 33 21 22 60 -91z"/>
<path d="M2250 3397 c-41 -13 -94 -33 -118 -46 -69 -35 -153 -127 -195 -212
-129 -263 -31 -561 227 -688 44 -22 106 -46 136 -52 59 -13 177 -7 209 11 23
12 16 21 131 -157 108 -164 197 -218 346 -211 65 3 90 9 127 31 53 31 110 107
105 140 -3 19 -8 22 -38 19 -19 -1 -76 -4 -127 -5 -87 -2 -93 -1 -135 28 -39
28 -107 117 -153 202 l-18 33 50 52 c62 66 96 124 122 212 65 212 -25 452
-217 579 -95 63 -148 80 -272 84 -88 2 -117 -1 -180 -20z m237 -171 c142 -38
237 -161 250 -323 8 -92 -11 -154 -75 -240 l-23 -31 -54 28 c-66 35 -137 45
-209 30 -57 -12 -116 -50 -116 -76 0 -25 -16 -15 -69 41 -77 81 -105 149 -105
255 -1 71 4 94 25 141 45 97 124 157 232 178 62 13 87 12 144 -3z"/>
<path d="M3325 3379 c-27 -6 -104 -8 -169 -7 -86 2 -120 0 -123 -9 -3 -7 15
-33 39 -59 l43 -47 5 -301 c5 -299 5 -301 31 -357 72 -153 210 -227 402 -216
121 6 215 52 281 135 85 105 89 127 93 442 2 167 8 286 15 303 6 15 29 43 50
62 22 18 37 38 34 43 -3 6 -84 9 -196 9 -216 -2 -216 -2 -148 -75 l41 -45 -6
-266 c-4 -146 -12 -283 -17 -303 -14 -50 -67 -94 -130 -107 -88 -19 -164 13
-207 86 l-28 48 -3 276 -3 276 41 39 c26 25 40 46 38 59 -4 24 -17 26 -83 14z"/>
<path d="M7245 3379 c-33 -5 -102 -6 -152 -2 -90 6 -93 5 -93 -16 0 -11 4 -21
9 -21 5 0 23 -19 40 -42 l31 -42 0 -373 0 -374 -50 -52 c-27 -29 -50 -56 -50
-60 0 -11 366 -5 376 6 4 4 -6 22 -22 40 -58 62 -57 57 -58 233 -1 91 1 167 4
169 4 2 22 -16 41 -40 19 -24 85 -99 147 -166 61 -67 112 -126 112 -131 0 -6
-18 -31 -41 -56 l-41 -47 43 -7 c24 -3 115 -7 202 -7 149 -1 197 6 197 29 0 4
-24 27 -52 50 -88 69 -398 416 -398 445 0 11 158 183 293 318 70 71 127 133
127 137 0 5 -88 9 -200 8 -224 -1 -224 0 -170 -68 17 -21 30 -41 30 -45 0 -3
-58 -67 -129 -140 -71 -74 -132 -144 -136 -155 -3 -11 -11 -20 -16 -20 -7 0
-9 59 -7 163 l3 163 36 44 c56 69 47 76 -76 59z"/>
<path d="M5940 3369 c0 -6 15 -28 33 -49 l34 -36 6 -139 c4 -76 7 -253 7 -392
l0 -255 -35 -42 c-19 -24 -35 -48 -35 -55 0 -8 42 -11 144 -11 143 0 206 6
206 20 0 4 -15 27 -34 51 l-35 44 -5 217 c-3 120 -2 219 2 222 5 3 39 -31 77
-75 110 -126 438 -443 480 -463 34 -17 97 -17 113 -2 3 3 -8 24 -24 47 l-29
42 -3 354 c-2 223 1 367 8 392 6 25 26 53 55 80 25 23 45 46 45 51 0 6 -74 9
-195 7 -221 -2 -225 -4 -155 -72 l40 -39 0 -223 c0 -123 -4 -223 -8 -223 -10
0 -89 82 -204 215 -53 61 -150 163 -215 228 l-120 117 -76 0 c-51 0 -77 -4
-77 -11z"/>
<path d="M7977 3367 c-2 -7 15 -33 39 -59 l43 -46 -6 -374 c-6 -403 -6 -401
-63 -453 -45 -41 -31 -45 159 -45 120 0 182 4 187 11 3 6 -3 23 -15 37 -57 72
-55 60 -56 432 -1 190 2 360 6 379 4 18 24 50 43 70 20 20 36 41 36 47 0 14
-368 16 -373 1z"/>
<path d="M4338 2043 c-8 -10 -25 -45 -38 -78 -13 -33 -41 -95 -62 -137 -43
-88 -49 -141 -19 -158 33 -17 49 -11 61 24 12 37 30 46 97 46 39 0 45 -4 68
-40 14 -22 31 -40 38 -40 22 0 57 30 57 49 0 10 -23 67 -50 127 -106 231 -118
246 -152 207z m45 -179 c10 -19 15 -40 12 -45 -10 -15 -65 -11 -71 5 -6 14 24
76 36 76 4 0 14 -16 23 -36z"/>
<path d="M4746 2038 c-28 -40 -16 -317 16 -355 16 -20 56 -16 63 7 3 11 7 53
7 94 l2 74 30 -25 c17 -13 51 -48 76 -78 25 -29 60 -62 78 -72 33 -18 34 -18
53 6 17 21 19 40 19 185 0 174 -3 186 -51 186 -34 0 -39 -13 -39 -114 0 -46
-2 -85 -5 -88 -3 -3 -52 41 -108 98 -56 57 -108 104 -114 104 -7 0 -19 -10
-27 -22z"/>
<path d="M5326 2044 c-3 -9 -6 -84 -6 -167 0 -171 8 -200 54 -205 36 -4 46 10
46 70 0 26 5 50 11 54 6 3 39 -23 73 -60 67 -70 88 -78 127 -47 l23 19 -74 87
-74 87 32 25 c18 14 48 46 68 71 l35 47 -21 17 c-39 32 -61 23 -132 -54 l-67
-73 -1 47 c0 74 -13 98 -54 98 -22 0 -36 -6 -40 -16z"/>
<path d="M5875 2040 c-9 -15 -13 -322 -4 -347 5 -12 18 -27 29 -33 18 -9 25
-8 42 7 19 17 20 25 13 183 -4 91 -11 173 -17 183 -9 18 -53 23 -63 7z"/>
<path d="M6385 1988 c-58 -32 -70 -91 -29 -145 19 -24 33 -33 55 -33 37 0 89
48 89 82 0 29 -32 78 -62 94 -28 16 -28 16 -53 2z"/>
<path d="M3783 1978 c-27 -13 -47 -60 -39 -91 9 -38 55 -77 88 -77 36 0 98 57
98 90 0 12 -15 37 -34 56 -36 36 -70 43 -113 22z"/>
</g>
</svg>
